# xmcd
#
# Track frame offsets: 
#        150
#        15379
#        30926
#        45667
#        58321
#        72868
#        88054
#        103656
#        119185
#        135677
#        149485
#        166007
#        180513
#        195005
#        206815
#        220149
#        234065
#        249247
#        263374
#        278643
#        295644
#        311270
#
# Disc length: 4330 seconds
#
# Revision: 2
# Processed by: cddbd v1.5.2PL0 Copyright (c) Steve Scherf et al.
# Submitted via: ExactAudioCopy v0.95b3
#
DISCID=2910e816
DTITLE=Various Artist - Presenting Ella, Sassy and Billie Sing the Blues
DYEAR=1900
DGENRE=Blues
TTITLE0=Ella Fitzgerald - Basin Street Blues
TTITLE1=Ella Fitzgerald - Goodnight, My Love
TTITLE2=Ella Fitzgerald - A Little Bit Later On
TTITLE3=Ella Fitzgerald - A-Tisket, A-Tasket
TTITLE4=Ella Fitzgerald - You Won't be Satisfied
TTITLE5=Ella Fitzgerald - Into Each Life Some Rain Must Fall
TTITLE6=Ella Fitzgerald - Stairway to the Stars
TTITLE7=Sarah Vaughan - When We're Alone (Penthouse Serenade)
TTITLE8=Sarah Vaughan - Mean to Me
TTITLE9=Sarah Vaughan - I'm Through With Love
TTITLE10=Sarah Vaughan - Lover Man
TTITLE11=Sarah Vaughan - Don't Blame Me
TTITLE12=Sarah Vaughan - A Hundred Years from Today
TTITLE13=Sarah Vaughan - I'm Gonna Sit Right Down and Write Myself a L
TTITLE13=etter
TTITLE14=Billie Holiday - Billie's Blues
TTITLE15=Billie Holiday - I Gotta Right to Sing the Blues
TTITLE16=Billie Holiday - The Man I Love
TTITLE17=Billie Holiday - God Bless the Child
TTITLE18=Billie Holiday - Georgia on My Mind
TTITLE19=Billie Holiday - Do Nothing Till You Hear Ffom Me
TTITLE20=Billie Holiday - Any Old Time
TTITLE21=Billie Holiday - What a Little Moonlight Can Do
EXTD=
EXTT0=
EXTT1=
EXTT2=
EXTT3=
EXTT4=
EXTT5=
EXTT6=
EXTT7=
EXTT8=
EXTT9=
EXTT10=
EXTT11=
EXTT12=
EXTT13=
EXTT14=
EXTT15=
EXTT16=
EXTT17=
EXTT18=
EXTT19=
EXTT20=
EXTT21=
PLAYORDER=
